<svg width="25" height="25" viewBox="0 0 25 25" fill="none" xmlns="http://www.w3.org/2000/svg">
<path fill-rule="evenodd" clip-rule="evenodd" d="M12.5 18.8105C15.8137 18.8105 18.5 16.1243 18.5 12.8105C18.5 9.49684 15.8137 6.81055 12.5 6.81055C9.18629 6.81055 6.5 9.49684 6.5 12.8105C6.5 16.1243 9.18629 18.8105 12.5 18.8105Z" fill="#1A1D1F"/>
<path fill-rule="evenodd" clip-rule="evenodd" d="M12.4955 2.31055C13.0477 2.31055 13.4955 2.75826 13.4955 3.31055V4.31055C13.4955 4.86283 13.0477 5.31055 12.4955 5.31055C11.9432 5.31055 11.4955 4.86283 11.4955 4.31055V3.31055C11.4955 2.75826 11.9432 2.31055 12.4955 2.31055Z" fill="#1A1D1F"/>
<path fill-rule="evenodd" clip-rule="evenodd" d="M12.4955 20.3105C13.0477 20.3105 13.4955 20.7583 13.4955 21.3105V22.3073C13.4955 22.8596 13.0477 23.3073 12.4955 23.3073C11.9432 23.3073 11.4955 22.8596 11.4955 22.3073V21.3105C11.4955 20.7583 11.9432 20.3105 12.4955 20.3105Z" fill="#1A1D1F"/>
<path fill-rule="evenodd" clip-rule="evenodd" d="M1.99707 12.8089C1.99707 12.2566 2.44479 11.8089 2.99707 11.8089H3.99707C4.54936 11.8089 4.99707 12.2566 4.99707 12.8089C4.99707 13.3612 4.54936 13.8089 3.99707 13.8089H2.99707C2.44479 13.8089 1.99707 13.3612 1.99707 12.8089Z" fill="#1A1D1F"/>
<path fill-rule="evenodd" clip-rule="evenodd" d="M19.9971 12.8089C19.9971 12.2566 20.4448 11.8089 20.9971 11.8089H21.9938C22.5461 11.8089 22.9938 12.2566 22.9938 12.8089C22.9938 13.3612 22.5461 13.8089 21.9938 13.8089H20.9971C20.4448 13.8089 19.9971 13.3612 19.9971 12.8089Z" fill="#1A1D1F"/>
<path fill-rule="evenodd" clip-rule="evenodd" d="M5.07207 20.2324C4.68155 19.8419 4.68155 19.2087 5.07207 18.8182L5.77918 18.1111C6.16971 17.7206 6.80287 17.7206 7.19339 18.1111C7.58392 18.5016 7.58392 19.1348 7.19339 19.5253L6.48629 20.2324C6.09576 20.6229 5.4626 20.6229 5.07207 20.2324Z" fill="#1A1D1F"/>
<path fill-rule="evenodd" clip-rule="evenodd" d="M17.8 7.50449C17.4095 7.11397 17.4095 6.4808 17.8 6.09028L18.5048 5.38545C18.8953 4.99492 19.5285 4.99492 19.919 5.38545C20.3096 5.77597 20.3096 6.40914 19.919 6.79966L19.2142 7.50449C18.8237 7.89501 18.1905 7.89501 17.8 7.50449Z" fill="#1A1D1F"/>
<path fill-rule="evenodd" clip-rule="evenodd" d="M5.07207 5.38545C5.4626 4.99492 6.09576 4.99492 6.48629 5.38545L7.19339 6.09256C7.58392 6.48308 7.58392 7.11624 7.19339 7.50677C6.80287 7.89729 6.1697 7.89729 5.77918 7.50677L5.07207 6.79966C4.68155 6.40914 4.68155 5.77597 5.07207 5.38545Z" fill="#1A1D1F"/>
<path fill-rule="evenodd" clip-rule="evenodd" d="M17.8 18.1134C18.1905 17.7228 18.8237 17.7228 19.2142 18.1134L19.919 18.8182C20.3096 19.2087 20.3096 19.8419 19.919 20.2324C19.5285 20.6229 18.8953 20.6229 18.5048 20.2324L17.8 19.5276C17.4095 19.1371 17.4095 18.5039 17.8 18.1134Z" fill="#1A1D1F"/>
</svg>
