<svg width="24" height="25" viewBox="0 0 24 25" fill="none" xmlns="http://www.w3.org/2000/svg">
<path fill-rule="evenodd" clip-rule="evenodd" d="M8.06567 6.83663C6.21318 8.09775 5 10.2226 5 12.6277C5 16.4937 8.13401 19.6277 12 19.6277C14.4051 19.6277 16.5299 18.4145 17.7911 16.562C12.6817 16.0035 8.62421 11.946 8.06567 6.83663ZM19 14.6277C19.866 14.6277 20.6118 15.391 20.2691 16.1863C18.8898 19.387 15.7066 21.6277 12 21.6277C7.02944 21.6277 3 17.5983 3 12.6277C3 8.92112 5.24067 5.73789 8.4414 4.35861C9.23674 4.01588 10 4.76166 10 5.62771C10 10.5983 14.0294 14.6277 19 14.6277Z" fill="#6F767E"/>
</svg>
